<svg width="20" height="16" viewBox="0 0 20 16" fill="none" xmlns="http://www.w3.org/2000/svg">
<path d="M2 0C0.895 0 0 0.895 0 2V14C0 15.105 0.895 16 2 16H18C19.105 16 20 15.105 20 14V2C20 0.895 19.105 0 18 0H2ZM2 2H18V6V10V14H2V10V2ZM2 10H2.90039L3.19922 9.09961H4.90039L5.19922 10H6.90039V7L8 10H8.80078L9.90039 7.09961V10H10.6992V6H9.40039L8.40039 8.69922L7.40039 6H6V9.80078L4.59961 6H3.5L2 10ZM18 10L16.5 8L18 6H16.9004L15.9004 7.19922L15.0996 6H11.8008V10H15L16 8.69922L17 10H18ZM4 6.80078L4.5 8.19922H3.5L4 6.80078ZM12.5996 6.90039H14.5996L15.4004 8L14.5 9.19922H12.5996V8.40039H14.4004V7.59961H12.5996V6.90039Z" fill="#F9FAFB"/>
</svg>
